<?xml version="1.0" standalone="no"?>
<!DOCTYPE svg PUBLIC "-//W3C//DTD SVG 20010904//EN"
 "http://www.w3.org/TR/2001/REC-SVG-20010904/DTD/svg10.dtd">
<svg version="1.0" xmlns="http://www.w3.org/2000/svg"
 width="900.000000pt" height="1200.000000pt" viewBox="0 0 900.000000 1200.000000"
 preserveAspectRatio="xMidYMid meet">

<g transform="translate(0.000000,1200.000000) scale(0.100000,-0.100000)"
fill="#000000" stroke="none">
<path d="M4290 8109 c-256 -34 -382 -67 -574 -151 -147 -64 -322 -175 -441
-281 l-50 -45 41 -11 c42 -11 241 -83 279 -101 35 -16 328 -142 399 -172 103
-42 498 -242 681 -343 154 -85 456 -263 560 -330 96 -61 370 -244 430 -286
100 -71 278 -201 313 -229 l33 -27 59 39 c79 52 184 81 270 75 36 -3 73 -8 83
-12 15 -6 17 1 17 76 -2 414 -148 825 -407 1142 -81 99 -246 252 -354 329
-139 99 -344 200 -499 247 -249 75 -613 110 -840 80z"/>
<path d="M3132 7539 c-244 -260 -397 -576 -464 -959 -15 -84 -15 -467 0 -545
58 -303 143 -524 281 -728 309 -458 783 -740 1340 -797 489 -49 956 59 1312
305 106 73 164 121 269 225 121 120 288 346 277 374 -3 6 -27 20 -53 30 -106
42 -194 130 -237 239 -32 80 -29 212 5 294 15 35 36 77 49 94 12 17 18 34 13
38 -89 75 -573 407 -799 548 -527 326 -1133 638 -1570 808 -38 15 -97 37 -130
50 -33 13 -100 37 -148 54 l-88 30 -57 -60z"/>
<path d="M3800 1815 l0 -156 -37 26 c-66 45 -157 29 -202 -34 -15 -21 -21 -44
-21 -85 0 -47 4 -60 30 -90 55 -62 140 -70 201 -19 l29 25 0 -26 c0 -16 6 -26
15 -26 13 0 15 37 15 270 0 233 -2 270 -15 270 -13 0 -15 -24 -15 -155z m-64
-141 c68 -33 87 -128 36 -185 -23 -25 -38 -33 -78 -36 -43 -5 -54 -2 -81 21
-60 51 -65 134 -10 183 40 37 80 42 133 17z"/>
<path d="M6810 1700 c0 -233 2 -270 15 -270 13 0 15 37 15 270 0 233 -2 270
-15 270 -13 0 -15 -37 -15 -270z"/>
<path d="M7510 1815 l0 -156 -37 26 c-66 45 -157 29 -202 -34 -15 -21 -21 -44
-21 -85 0 -47 4 -60 30 -90 55 -62 140 -70 201 -19 l29 25 0 -26 c0 -16 6 -26
15 -26 13 0 15 37 15 270 0 233 -2 270 -15 270 -13 0 -15 -24 -15 -155z m-64
-141 c68 -33 87 -128 36 -185 -23 -25 -38 -33 -78 -36 -43 -5 -54 -2 -81 21
-60 51 -65 134 -10 183 40 37 80 42 133 17z"/>
<path d="M1522 1702 c33 -83 124 -282 128 -282 4 0 21 37 40 83 18 45 36 85
39 89 4 4 24 -33 46 -82 22 -50 42 -90 45 -90 9 0 131 282 125 288 -11 11 -33
-25 -75 -125 -24 -57 -46 -103 -50 -103 -3 0 -28 50 -55 110 -26 61 -52 113
-57 116 -17 11 -18 -3 -3 -38 14 -34 13 -40 -19 -118 l-33 -82 -53 121 c-32
71 -60 121 -68 121 -7 0 -12 -4 -10 -8z"/>
<path d="M2383 1691 c-43 -27 -63 -69 -63 -132 0 -46 4 -55 38 -89 71 -72 181
-58 230 29 35 62 23 129 -32 180 -37 35 -127 41 -173 12z m159 -39 c56 -55 45
-153 -22 -187 -102 -53 -210 44 -166 149 32 78 129 97 188 38z"/>
<path d="M3026 1703 c-3 -3 -6 -66 -6 -140 0 -112 2 -133 15 -133 12 0 15 16
15 85 0 108 14 137 75 160 47 19 59 35 25 35 -28 0 -77 -26 -89 -47 -9 -16
-10 -14 -11 9 0 27 -12 43 -24 31z"/>
<path d="M4762 1702 c33 -83 124 -282 128 -282 4 0 21 37 40 83 18 45 36 85
39 89 4 4 24 -33 46 -82 22 -50 42 -90 45 -90 9 0 131 282 125 288 -11 11 -33
-25 -75 -125 -24 -57 -46 -103 -50 -103 -3 0 -28 50 -55 110 -26 61 -52 113
-57 116 -17 11 -18 -3 -3 -38 14 -34 13 -40 -19 -118 l-33 -82 -53 121 c-32
71 -60 121 -68 121 -7 0 -12 -4 -10 -8z"/>
<path d="M5623 1691 c-43 -27 -63 -69 -63 -132 0 -46 4 -55 38 -89 71 -72 181
-58 230 29 35 62 23 129 -32 180 -37 35 -127 41 -173 12z m159 -39 c56 -55 45
-153 -22 -187 -102 -53 -210 44 -166 149 32 78 129 97 188 38z"/>
<path d="M6266 1703 c-3 -3 -6 -66 -6 -140 0 -112 2 -133 15 -133 12 0 15 16
15 85 0 108 14 137 75 160 47 19 59 35 25 35 -28 0 -77 -26 -89 -47 -9 -16
-10 -14 -11 9 0 27 -12 43 -24 31z"/>
</g>
</svg>
