<?xml version="1.0" standalone="no"?>
<!DOCTYPE svg PUBLIC "-//W3C//DTD SVG 20010904//EN"
 "http://www.w3.org/TR/2001/REC-SVG-20010904/DTD/svg10.dtd">
<svg version="1.0" xmlns="http://www.w3.org/2000/svg"
 width="483.000000pt" height="408.000000pt" viewBox="0 0 483.000000 408.000000"
 preserveAspectRatio="xMidYMid meet">

<g transform="translate(0.000000,408.000000) scale(0.100000,-0.100000)"
fill="#000000" stroke="none">
<path d="M3906 4064 c-163 -36 -271 -97 -391 -218 -75 -75 -99 -107 -138 -186
-66 -133 -82 -199 -82 -350 0 -151 16 -217 82 -350 40 -80 62 -110 143 -190
80 -81 110 -103 190 -143 133 -66 199 -82 350 -82 151 0 217 16 350 82 80 40
110 62 190 143 81 80 103 110 143 190 66 133 82 199 82 350 0 151 -16 217 -82
350 -40 81 -61 109 -143 190 -107 107 -199 163 -330 200 -100 29 -270 35 -364
14z m273 -249 c187 -44 342 -199 386 -386 88 -373 -251 -712 -624 -624 -187
44 -342 199 -386 386 -88 373 251 712 624 624z"/>
<path d="M3783 3597 c-33 -34 -53 -63 -53 -77 0 -15 29 -52 87 -111 l87 -89
-87 -89 c-58 -59 -87 -96 -87 -111 0 -31 99 -130 130 -130 15 0 52 29 111 87
l89 87 89 -87 c59 -58 96 -87 111 -87 31 0 130 99 130 130 0 15 -29 52 -87
111 l-87 89 87 89 c58 59 87 96 87 111 0 31 -99 130 -130 130 -15 0 -52 -29
-111 -87 l-89 -87 -89 87 c-59 58 -96 87 -111 87 -14 0 -43 -20 -77 -53z"/>
<path d="M420 3666 c-187 -42 -349 -205 -395 -397 -22 -97 -22 -2742 0 -2838
45 -191 187 -340 374 -395 49 -14 235 -16 1837 -16 1754 0 1783 0 1847 20 35
11 87 32 113 47 71 39 166 140 203 214 63 131 61 86 61 1171 l0 988 -52 -22
c-119 -48 -180 -60 -325 -65 l-143 -6 0 -513 c0 -283 -3 -514 -8 -514 -4 0
-151 144 -327 320 l-320 320 -540 -540 c-297 -297 -545 -540 -550 -540 -6 0
-91 81 -190 180 l-180 180 122 122 c193 194 274 282 271 295 -4 17 -511 551
-525 552 -6 1 -13 -3 -15 -9 -4 -12 -1130 -1140 -1137 -1140 -4 0 -5 1494 -1
2073 0 4 580 7 1290 7 l1290 0 0 125 c0 132 17 241 51 327 10 27 19 53 19 58
0 16 -2700 11 -2770 -4z"/>
<path d="M2515 2866 c-116 -53 -172 -188 -133 -318 15 -50 79 -123 132 -150
61 -32 165 -31 230 2 161 82 194 291 65 419 -74 74 -195 94 -294 47z"/>
</g>
</svg>
