<?xml version="1.0" standalone="no"?>
<!DOCTYPE svg PUBLIC "-//W3C//DTD SVG 20010904//EN"
 "http://www.w3.org/TR/2001/REC-SVG-20010904/DTD/svg10.dtd">
<svg version="1.0" xmlns="http://www.w3.org/2000/svg"
 width="512.000000pt" height="512.000000pt" viewBox="0 0 512.000000 512.000000"
 preserveAspectRatio="xMidYMid meet">

<g transform="translate(0.000000,512.000000) scale(0.100000,-0.100000)"
fill="#000000" stroke="none">
<path d="M1600 3911 c-520 -186 -956 -347 -970 -358 -32 -27 -35 -93 -4 -123
12 -13 166 -69 404 -148 l385 -129 5 -459 c3 -252 9 -465 13 -472 16 -24 67
-41 595 -192 l532 -153 188 54 c103 30 195 62 204 71 44 44 33 113 -23 141
l-37 17 -156 -45 c-86 -25 -165 -45 -175 -45 -15 0 -760 210 -943 266 -17 5
-18 32 -18 380 0 206 1 374 3 374 1 0 211 -70 467 -155 256 -85 476 -155 490
-155 43 0 356 109 376 131 30 33 25 96 -9 125 -16 13 -38 24 -50 24 -13 0 -89
-22 -170 -49 l-147 -49 -782 260 c-431 143 -787 264 -791 268 -4 4 348 134
783 289 l790 282 790 -282 c435 -155 787 -285 783 -289 -4 -4 -183 -65 -396
-136 -214 -71 -397 -137 -408 -147 -45 -42 -30 -119 27 -143 29 -12 40 -11 96
6 35 11 64 20 66 20 1 0 2 -168 2 -374 l0 -374 -68 -21 c-38 -11 -76 -28 -84
-38 -42 -46 -26 -119 31 -143 25 -10 43 -8 123 14 117 33 144 44 160 64 10 11
14 121 18 475 l5 460 385 129 c238 79 392 135 404 148 28 27 28 93 1 119 -18
18 -1914 702 -1939 700 -6 0 -436 -153 -956 -338z"/>
<path d="M2499 3631 c-33 -33 -38 -74 -14 -108 8 -12 143 -128 300 -259 l285
-237 0 -797 0 -797 -39 -18 c-22 -9 -53 -31 -70 -49 -49 -51 -61 -92 -61 -217
0 -101 2 -116 26 -160 50 -90 134 -125 282 -117 122 7 180 39 225 123 19 35
22 56 22 160 0 105 -3 125 -22 162 -27 51 -78 91 -135 108 l-43 12 -5 839 c-3
461 -6 840 -8 841 -9 10 -603 503 -626 521 -40 31 -81 28 -117 -7z m769 -2393
c7 -7 12 -41 12 -84 0 -94 -10 -104 -96 -104 -99 0 -104 5 -104 104 0 45 3 86
7 89 12 12 168 8 181 -5z"/>
</g>
</svg>
