<?xml version="1.0" standalone="no"?>
<!DOCTYPE svg PUBLIC "-//W3C//DTD SVG 20010904//EN"
 "http://www.w3.org/TR/2001/REC-SVG-20010904/DTD/svg10.dtd">
<svg version="1.0" xmlns="http://www.w3.org/2000/svg"
 width="281.000000pt" height="262.000000pt" viewBox="0 0 281.000000 262.000000"
 preserveAspectRatio="xMidYMid meet">

<g transform="translate(0.000000,262.000000) scale(0.100000,-0.100000)"
fill="#000000" stroke="none">
<path d="M1289 2596 c-2 -2 -26 -7 -53 -10 -132 -18 -240 -53 -391 -127 -155
-76 -148 -63 -81 -164 l57 -86 47 27 c138 81 290 134 439 151 137 16 277 3
418 -38 158 -47 301 -134 426 -258 147 -148 234 -308 281 -513 38 -171 26
-395 -32 -570 -24 -73 -99 -232 -106 -225 -3 2 -10 70 -18 151 -7 80 -15 149
-18 152 -7 6 -188 -13 -196 -21 -6 -5 44 -619 54 -663 2 -13 8 -21 12 -18 4 2
50 7 102 11 52 4 102 8 110 10 8 2 58 6 110 10 52 4 102 8 110 10 8 2 57 6
109 10 51 4 101 8 110 10 14 2 15 15 12 96 -2 52 -5 98 -8 102 -3 5 -37 6 -77
3 -126 -10 -200 -17 -223 -21 -34 -5 -36 10 -10 52 117 186 187 437 187 672 0
348 -123 647 -364 887 -111 110 -207 180 -337 242 -80 38 -191 82 -207 81 -4
0 -27 5 -52 10 -25 6 -58 13 -75 17 -35 7 -329 16 -336 10z"/>
<path d="M565 2219 c-33 -4 -103 -10 -155 -14 -52 -3 -111 -8 -130 -10 -19 -2
-71 -7 -115 -11 -44 -3 -91 -8 -105 -9 -14 -2 -31 -3 -38 -4 -11 -1 -12 -20
-7 -93 8 -94 16 -120 38 -113 13 4 74 10 225 21 l93 7 -34 -54 c-154 -243
-222 -594 -172 -885 68 -392 309 -725 650 -897 133 -67 248 -107 350 -122 17
-2 48 -7 70 -10 74 -11 273 -6 362 10 176 30 351 100 491 193 11 7 2 27 -40
90 -29 45 -56 82 -61 82 -4 0 -33 -15 -65 -32 -207 -118 -435 -163 -682 -135
-79 10 -234 58 -315 99 -203 102 -363 263 -461 463 -149 305 -146 653 9 960
l41 80 7 -34 c4 -19 10 -79 14 -135 10 -150 0 -139 114 -131 53 4 98 9 100 11
2 2 -9 156 -25 341 l-29 338 -35 0 c-19 1 -62 -2 -95 -6z"/>
<path d="M1328 1969 c-252 -26 -473 -207 -554 -455 -25 -77 -29 -104 -29 -204
0 -100 4 -127 29 -204 71 -216 252 -385 471 -441 77 -19 243 -19 320 0 219 56
400 225 471 441 26 79 29 102 28 209 -1 149 -29 246 -105 359 -141 212 -375
321 -631 295z m136 -88 c48 -30 98 -107 131 -201 l13 -38 -45 -6 c-25 -3 -96
-6 -158 -6 -62 0 -133 3 -158 6 l-45 6 13 38 c20 56 55 121 83 155 55 66 109
81 166 46z m-256 -43 c-12 -18 -37 -68 -54 -111 -17 -43 -34 -78 -38 -79 -24
-2 -176 15 -176 21 0 20 126 127 190 161 93 49 109 51 78 8z m464 -4 c64 -32
198 -144 198 -165 0 -4 -35 -10 -77 -14 -43 -4 -84 -7 -91 -8 -7 -1 -27 34
-46 82 -19 46 -44 97 -56 113 -27 37 -14 35 72 -8z m-566 -267 c1 -1 -2 -26
-6 -55 -5 -29 -10 -77 -12 -107 l-3 -55 -132 0 -133 0 0 28 c0 36 22 116 47
173 l20 45 109 -14 c60 -7 109 -14 110 -15z m836 -14 c26 -59 48 -139 48 -175
l0 -28 -130 0 -129 0 -5 33 c-9 63 -23 182 -22 184 1 1 49 8 106 16 58 8 106
15 108 16 2 0 13 -20 24 -46z m-303 -68 c6 -42 11 -89 11 -105 l0 -30 -246 0
-247 0 7 77 c4 42 10 89 13 105 l6 28 222 0 223 0 11 -75z m-555 -237 c5 -25
23 -192 22 -195 -1 -1 -50 -8 -110 -15 l-109 -14 -20 45 c-25 57 -47 137 -47
174 l0 27 130 0 c126 0 130 -1 134 -22z m566 -8 c0 -16 -5 -63 -11 -105 l-11
-75 -223 0 -222 0 -6 28 c-3 16 -9 63 -13 105 l-7 77 247 0 246 0 0 -30z m340
3 c0 -37 -22 -117 -47 -174 l-20 -45 -109 14 c-60 7 -109 14 -110 15 -1 1 2
22 6 47 5 25 9 66 10 92 0 80 -4 78 141 78 l129 0 0 -27z m-427 -259 l45 -6
-13 -38 c-32 -92 -83 -169 -134 -202 -79 -53 -170 16 -237 180 l-23 57 32 6
c44 9 274 10 330 3z m-413 -81 c12 -35 35 -83 51 -108 16 -25 24 -45 19 -45
-32 0 -162 80 -217 133 -35 33 -63 63 -63 67 0 9 172 28 181 20 3 -3 16 -33
29 -67z m719 51 c3 -3 -22 -31 -54 -64 -54 -54 -191 -140 -224 -140 -6 0 0 17
14 38 20 31 55 107 77 173 5 13 18 14 94 6 49 -5 91 -11 93 -13z"/>
</g>
</svg>
